<svg width="22" height="18" viewBox="0 0 22 18" fill="none" xmlns="http://www.w3.org/2000/svg">
<path d="M11.6251 9.66805L11.6251 9.66804L19.75 4.9759V14.8105C19.75 15.2248 19.4142 15.5605 19 15.5605H3C2.58579 15.5605 2.25 15.2248 2.25 14.8105V4.9759L10.3749 9.66804L10.3749 9.66805C10.7617 9.89141 11.2383 9.89141 11.6251 9.66805ZM3 0.560547C1.75736 0.560547 0.75 1.56791 0.75 2.81055V14.8105C0.75 16.0532 1.75736 17.0605 3 17.0605H19C20.2427 17.0605 21.25 16.0532 21.25 14.8105V2.81055C21.25 1.56791 20.2427 0.560547 19 0.560547H3ZM2.25 2.81055C2.25 2.39634 2.58579 2.06055 3 2.06055H19C19.4142 2.06055 19.75 2.39633 19.75 2.81055V3.24373L11 8.29685L2.25 3.24373V2.81055Z" fill="black" stroke="black" stroke-width="0.5"/>
</svg>
