<svg width="25" height="25" viewBox="0 0 25 25" fill="none" xmlns="http://www.w3.org/2000/svg">
<path d="M15.4226 11.7774C14.9627 11.7774 14.5813 11.3961 14.5813 10.9362V9.81456C14.5813 8.17696 14.1776 7.29086 12.0577 7.29086C9.93775 7.29086 9.53396 8.17696 9.53396 9.81456V10.9362C9.53396 11.3961 9.1526 11.7774 8.69273 11.7774C8.23285 11.7774 7.85149 11.3961 7.85149 10.9362V9.81456C7.85149 8.77143 7.85149 5.6084 12.0577 5.6084C16.2638 5.6084 16.2638 8.77143 16.2638 9.81456V10.9362C16.2638 11.3961 15.8825 11.7774 15.4226 11.7774Z" fill="black"/>
<path d="M12.0581 15.8151C11.2281 15.8151 10.5439 15.1309 10.5439 14.3008C10.5439 13.4708 11.2281 12.7866 12.0581 12.7866C12.8881 12.7866 13.5722 13.4708 13.5722 14.3008C13.5722 15.1309 12.8881 15.8151 12.0581 15.8151ZM12.0581 14.1326C11.9684 14.1326 11.8897 14.2111 11.8897 14.3008C11.8897 14.4915 12.2263 14.4915 12.2263 14.3008C12.2263 14.2111 12.1478 14.1326 12.0581 14.1326Z" fill="black"/>
<path d="M14.8618 18.507H9.25355C6.56161 18.507 5.60822 17.5536 5.60822 14.8617V13.7401C5.60822 11.0481 6.56161 10.0947 9.25355 10.0947H14.8618C17.5537 10.0947 18.5071 11.0481 18.5071 13.7401V14.8617C18.5071 17.5536 17.5537 18.507 14.8618 18.507ZM9.25355 11.7772C7.47014 11.7772 7.29068 11.9567 7.29068 13.7401V14.8617C7.29068 16.6451 7.47014 16.8246 9.25355 16.8246H14.8618C16.6452 16.8246 16.8246 16.6451 16.8246 14.8617V13.7401C16.8246 11.9567 16.6452 11.7772 14.8618 11.7772H9.25355Z" fill="black"/>
<path d="M12.0577 24.1153C5.40632 24.1153 0 18.709 0 12.0577C0 5.40632 5.40632 0 12.0577 0C18.709 0 24.1153 5.40632 24.1153 12.0577C24.1153 18.709 18.709 24.1153 12.0577 24.1153ZM12.0577 1.68246C6.33728 1.68246 1.68246 6.33728 1.68246 12.0577C1.68246 17.778 6.33728 22.4328 12.0577 22.4328C17.778 22.4328 22.4328 17.778 22.4328 12.0577C22.4328 6.33728 17.778 1.68246 12.0577 1.68246Z" fill="black"/>
</svg>
