<svg width="23" height="23" viewBox="0 0 23 23" xmlns="http://www.w3.org/2000/svg">
<path d="M11.328 12.797C11.3072 12.797 11.2759 12.797 11.2551 12.797C11.2238 12.797 11.1821 12.797 11.1509 12.797C8.78528 12.7241 7.01373 10.8796 7.01373 8.60782C7.01373 6.29439 8.89991 4.4082 11.2134 4.4082C13.5268 4.4082 15.413 6.29439 15.413 8.60782C15.4026 10.89 13.6206 12.7241 11.3593 12.797C11.3384 12.797 11.3384 12.797 11.328 12.797ZM11.203 5.96092C9.74404 5.96092 8.56645 7.1489 8.56645 8.5974C8.56645 10.0251 9.68151 11.1818 11.0988 11.2339C11.13 11.2235 11.2342 11.2235 11.3384 11.2339C12.7348 11.161 13.829 10.0147 13.8395 8.5974C13.8395 7.1489 12.6619 5.96092 11.203 5.96092Z" />
<path d="M11.2033 22.4053C8.40011 22.4053 5.72194 21.3632 3.64819 19.4666C3.46061 19.2998 3.37724 19.0497 3.39808 18.8101C3.53356 17.57 4.3047 16.4132 5.58647 15.5587C8.6919 13.4954 13.7252 13.4954 16.8202 15.5587C18.102 16.4237 18.8731 17.57 19.0086 18.8101C19.0398 19.0602 18.9461 19.2998 18.7585 19.4666C16.6847 21.3632 14.0065 22.4053 11.2033 22.4053ZM5.03417 18.6016C6.76403 20.0501 8.942 20.8421 11.2033 20.8421C13.4647 20.8421 15.6426 20.0501 17.3725 18.6016C17.1849 17.966 16.6847 17.3511 15.9448 16.8509C13.3813 15.1419 9.03579 15.1419 6.45141 16.8509C5.71152 17.3511 5.22174 17.966 5.03417 18.6016Z" />
<path d="M11.2025 22.4049C5.02287 22.4049 0 17.3821 0 11.2025C0 5.02287 5.02287 0 11.2025 0C17.3821 0 22.4049 5.02287 22.4049 11.2025C22.4049 17.3821 17.3821 22.4049 11.2025 22.4049ZM11.2025 1.56313C5.88781 1.56313 1.56313 5.88781 1.56313 11.2025C1.56313 16.5171 5.88781 20.8418 11.2025 20.8418C16.5171 20.8418 20.8418 16.5171 20.8418 11.2025C20.8418 5.88781 16.5171 1.56313 11.2025 1.56313Z" />
</svg>
