<svg width="28" height="28" viewBox="0 0 28 28" fill="none" xmlns="http://www.w3.org/2000/svg">
<path d="M9.77667 22.339H9.17846C4.39282 22.339 2 21.1426 2 15.1605V9.17846C2 4.39282 4.39282 2 9.17846 2H18.7498C23.5354 2 25.9282 4.39282 25.9282 9.17846V15.1605C25.9282 19.9462 23.5354 22.339 18.7498 22.339H18.1515C17.7807 22.339 17.4217 22.5184 17.1944 22.8175L15.3998 25.2104C14.6102 26.2632 13.318 26.2632 12.5284 25.2104L10.7338 22.8175C10.5424 22.5543 10.0997 22.339 9.77667 22.339Z" stroke="black" stroke-width="2.5" stroke-miterlimit="10" stroke-linecap="round" stroke-linejoin="round"/>
<path d="M18.7456 12.7676H18.7563" stroke="black" stroke-width="3" stroke-linecap="round" stroke-linejoin="round"/>
<path d="M13.9587 12.7676H13.9695" stroke="black" stroke-width="3" stroke-linecap="round" stroke-linejoin="round"/>
<path d="M9.17188 12.7676H9.18262" stroke="black" stroke-width="3" stroke-linecap="round" stroke-linejoin="round"/>
</svg>
