<svg width="25" height="28" viewBox="0 0 25 28" fill="none" xmlns="http://www.w3.org/2000/svg">
<path d="M23.1 6.77603C19.104 6.38003 15.084 6.17603 11.076 6.17603C8.7 6.17603 6.324 6.29603 3.948 6.53603L1.5 6.77603" stroke="black" stroke-width="2.25662" stroke-linecap="round" stroke-linejoin="round"/>
<path d="M8.09998 5.564L8.36398 3.992C8.55598 2.852 8.69997 2 10.728 2H13.872C15.9 2 16.056 2.9 16.236 4.004L16.5 5.564" stroke="black" stroke-width="2.25662" stroke-linecap="round" stroke-linejoin="round"/>
<path d="M20.5201 10.5681L19.7401 22.6521C19.6081 24.5361 19.5001 26.0001 16.1521 26.0001H8.44808C5.10008 26.0001 4.99208 24.5361 4.86008 22.6521L4.08008 10.5681" stroke="black" stroke-width="2.25662" stroke-linecap="round" stroke-linejoin="round"/>
<path d="M10.296 19.3999H14.292" stroke="black" stroke-width="2.25662" stroke-linecap="round" stroke-linejoin="round"/>
<path d="M9.30005 14.6001H15.3" stroke="black" stroke-width="2.25662" stroke-linecap="round" stroke-linejoin="round"/>
</svg>
