<svg width="59" height="44" viewBox="0 0 59 44" fill="none" xmlns="http://www.w3.org/2000/svg">
<path d="M17.015 17.8914C15.465 16.0114 14.095 14.2714 12.635 12.6114C11.7699 11.6256 11.2319 10.3958 11.095 9.0914C10.835 6.9814 11.615 5.9314 13.685 5.4314C16.625 4.7214 19.535 5.4314 22.455 5.6114C25.775 5.8014 29.085 6.0914 32.395 6.3914C33.555 6.4914 33.985 6.1314 34.115 4.9214C34.325 2.9914 35.035 1.2714 37.115 0.431396C39.855 -0.698604 42.275 0.431396 43.505 3.3514C44.505 5.6614 43.205 8.1114 40.575 9.0614C37.945 10.0114 37.945 10.0114 39.315 12.4414C39.725 13.1814 40.075 13.9614 40.445 14.7214C40.5164 14.8333 40.5648 14.9584 40.5873 15.0892C40.6099 15.2201 40.6062 15.3541 40.5764 15.4835C40.5466 15.6129 40.4913 15.735 40.4138 15.8428C40.3363 15.9506 40.2382 16.0419 40.125 16.1114C39.615 16.5014 39.125 16.2914 38.695 15.9514C38.2469 15.5866 37.9022 15.1108 37.695 14.5714C37.345 13.7914 36.935 13.0514 36.625 12.2614C35.695 9.8414 33.935 8.8614 31.375 8.7214C26.525 8.4614 21.795 7.9914 17.055 7.6014C15.845 7.5114 14.285 7.1614 13.645 8.4214C13.005 9.6814 14.195 10.8514 15.075 11.7614C17.3389 13.9211 19.4225 16.2622 21.305 18.7614C21.8308 19.3524 22.1776 20.0807 22.305 20.8614C22.375 21.7414 22.375 22.6114 21.475 23.0914C20.575 23.5714 20.175 22.8214 19.625 22.3914C16.075 19.6214 10.995 18.9214 7.56499 21.3914C3.19499 24.5414 0.484994 29.5614 3.77499 35.3914C4.54809 36.8144 5.64432 38.0362 6.97555 38.9584C8.30677 39.8806 9.83583 40.4776 11.4398 40.7013C13.0437 40.925 14.6778 40.7693 16.2105 40.2465C17.7433 39.7237 19.132 38.8486 20.265 37.6914C22.0064 35.7967 23.8455 33.9942 25.775 32.2914C26.935 31.3714 26.835 30.6314 25.335 29.8914C21.965 28.2214 18.775 27.8414 15.645 30.3614C15.2691 30.622 14.8436 30.8024 14.395 30.8914C13.655 31.0914 12.935 31.0414 12.605 30.1814C12.275 29.3214 12.725 28.9514 13.315 28.5514C15.7683 26.7595 18.8074 25.9595 21.825 26.3114C23.9796 26.5001 26.071 27.137 27.965 28.1814C28.1207 28.3152 28.3034 28.4138 28.5007 28.4707C28.698 28.5275 28.9051 28.5412 29.1082 28.5109C29.3112 28.4805 29.5053 28.4068 29.6773 28.2947C29.8493 28.1826 29.9952 28.0349 30.105 27.8614C32.595 25.2914 35.245 22.8614 37.705 20.2714C39.705 18.1114 42.415 17.8914 45.055 17.6114C51.835 16.9114 56.985 21.8714 58.055 25.9214C59.995 33.3014 57.545 38.5014 51.555 41.9214C47.955 43.9214 40.385 43.4714 36.825 39.5214C34.9555 37.2635 32.8799 35.1845 30.625 33.3114C29.625 32.5514 28.915 32.3914 27.965 33.3914C25.965 35.5214 23.845 37.5714 21.745 39.6214C16.535 44.7214 7.66499 44.1014 2.96499 38.5214C-1.73501 32.9414 -1.03501 23.3114 6.41499 19.0714C8.85958 17.7508 11.6769 17.2894 14.415 17.7614C15.2627 17.9882 16.1489 18.0325 17.015 17.8914ZM45.385 40.7214C46.7936 40.7359 48.1912 40.4709 49.4967 39.9416C50.8022 39.4122 51.9897 38.6292 52.9904 37.6377C53.9912 36.6463 54.7853 35.4661 55.3268 34.1656C55.8683 32.8651 56.1464 31.4701 56.145 30.0614C56.1582 28.1102 55.582 26.2004 54.4918 24.5821C53.4016 22.9638 51.8482 21.7123 50.035 20.9914C48.3963 20.1723 46.5565 19.8423 44.7353 20.0409C42.9141 20.2395 41.1886 20.9583 39.765 22.1114C36.865 24.2814 34.905 27.3514 32.005 29.4714C31.165 30.0814 31.565 30.6814 32.125 31.2514C33.765 32.9214 35.305 34.7014 37.045 36.2514C39.545 38.5114 41.965 40.9914 45.385 40.7214ZM38.265 6.9914C39.925 6.9914 41.195 6.5314 41.265 4.8914C41.2725 4.57696 41.2146 4.26439 41.095 3.97351C40.9753 3.68263 40.7965 3.41979 40.57 3.20166C40.3434 2.98352 40.0739 2.81486 39.7787 2.70637C39.4835 2.59787 39.1689 2.55191 38.855 2.5714C37.295 2.5014 36.855 3.7014 36.755 5.0714C36.655 6.4414 37.015 7.1614 38.265 6.9914Z" fill="#BDF26D"/>
</svg>
