<svg width="36" height="45" viewBox="0 0 36 45" fill="none" xmlns="http://www.w3.org/2000/svg">
<path d="M24.2239 28.9822H23.523C20.8474 28.9822 20.8474 28.9822 20.8196 26.2955C20.8196 24.0148 20.7918 24.0037 18.4444 23.9926H18.0995C14.2836 23.9926 14.5395 23.7367 14.6285 27.2801C14.6618 28.5539 14.1445 29.0657 12.8707 28.9933C11.7081 28.9266 10.5455 28.9933 9.37739 28.9933C7.93668 28.9933 7.31367 28.2702 7.19129 26.8629C7.02441 24.9994 7.44717 23.5253 8.98244 22.2626C11.6191 20.0765 14.1056 17.7013 16.5976 15.3483C17.3875 14.6085 17.9827 14.4973 18.8226 15.2705C21.7152 17.985 24.6522 20.5883 27.5114 23.3362C28.8297 24.5989 28.3569 26.3066 28.0343 27.7863C27.7116 29.2659 26.3655 28.9544 25.253 28.9767L24.2239 28.9822Z" fill="#669933"/>
<path d="M30.5096 17.2062C30.519 17.6447 30.4071 18.0772 30.1862 18.4561C29.9654 18.835 29.6442 19.1455 29.258 19.3534C28.8247 19.6098 28.3204 19.7202 27.8196 19.6681C27.3188 19.616 26.848 19.4043 26.4767 19.0641C24.7134 17.5511 22.9946 15.9936 21.2535 14.4527C16.8034 10.5589 18.4722 10.8593 14.1334 14.5139C12.5313 15.8545 11.0461 17.3342 9.46637 18.7026C8.02009 19.9541 6.60164 19.9708 5.60594 18.8472C4.61023 17.7235 4.86055 16.255 6.21782 15.0257C9.73893 11.8105 13.3101 8.65653 16.8312 5.45249C16.9346 5.31219 17.0695 5.19814 17.2251 5.11954C17.3807 5.04095 17.5525 5 17.7268 5C17.9011 5 18.0729 5.04095 18.2285 5.11954C18.3841 5.19814 18.519 5.31219 18.6224 5.45249C22.1935 8.68991 25.787 11.8995 29.3637 15.1314C29.6958 15.3715 29.9707 15.6819 30.1687 16.0406C30.3668 16.3993 30.4832 16.7973 30.5096 17.2062Z" fill="#669933"/>
<circle cx="17.7551" cy="37.5" r="2.5" fill="#77A649"/>
</svg>
