<svg xmlns="http://www.w3.org/2000/svg" fill="none" viewBox="0 0 25.51 24">
<path d="M19.2239 23.9822H18.523C15.8474 23.9822 15.8474 23.9822 15.8196 21.2954C15.8196 19.0148 15.7918 19.0036 13.4444 18.9925H13.0995C9.28358 18.9925 9.53946 18.7366 9.62846 22.28C9.66184 23.5538 9.14452 24.0656 7.87069 23.9933C6.70811 23.9265 5.54553 23.9933 4.37739 23.9933C2.93668 23.9933 2.31367 23.2701 2.19129 21.8628C2.02441 19.9994 2.44717 18.5253 3.98244 17.2626C6.6191 15.0765 9.10558 12.7012 11.5976 10.3483C12.3875 9.60845 12.9827 9.4972 13.8226 10.2704C16.7152 12.9849 19.6522 15.5882 22.5114 18.3361C23.8297 19.5988 23.3569 21.3066 23.0343 22.7862C22.7116 24.2659 21.3655 23.9543 20.253 23.9766L19.2239 23.9822Z" fill="#BDF26D"/>
<path d="M25.5096 12.2062C25.519 12.6447 25.4071 13.0772 25.1862 13.4561C24.9654 13.835 24.6442 14.1455 24.258 14.3534C23.8247 14.6098 23.3204 14.7202 22.8196 14.6681C22.3188 14.616 21.848 14.4043 21.4767 14.0641C19.7134 12.5511 17.9946 10.9936 16.2535 9.45274C11.8034 5.55894 13.4722 5.85932 9.13337 9.51393C7.53135 10.8545 6.04614 12.3342 4.46637 13.7026C3.02009 14.9541 1.60164 14.9708 0.605935 13.8472C-0.389766 12.7235 -0.13945 11.255 1.21782 10.0257C4.73893 6.81052 8.31011 3.65653 11.8312 0.452488C11.9346 0.312187 12.0695 0.198141 12.2251 0.119545C12.3807 0.0409485 12.5525 0 12.7268 0C12.9011 0 13.0729 0.0409485 13.2285 0.119545C13.3841 0.198141 13.519 0.312187 13.6224 0.452488C17.1935 3.68991 20.787 6.89952 24.3637 10.1314C24.6958 10.3715 24.9707 10.6819 25.1687 11.0406C25.3668 11.3993 25.4832 11.7973 25.5096 12.2062Z" fill="#BDF26D"/>
</svg>