<svg width="23" height="24" viewBox="0 0 23 24" xmlns="http://www.w3.org/2000/svg">
<path d="M10.7277 11.9999C13.2195 11.9999 15.2396 9.97981 15.2396 7.48797C15.2396 4.99612 13.2195 2.97607 10.7277 2.97607C8.23587 2.97607 6.21582 4.99612 6.21582 7.48797C6.21582 9.97981 8.23587 11.9999 10.7277 11.9999Z" stroke-width="1.5" stroke-linecap="round" stroke-linejoin="round"/>
<path d="M2.9762 21.0237C2.9762 17.5315 6.45035 14.707 10.7276 14.707C11.5939 14.707 12.4331 14.8243 13.2182 15.0409" stroke-width="1.5" stroke-linecap="round" stroke-linejoin="round"/>
<path d="M19.7515 17.4142C19.7515 17.703 19.7154 17.9827 19.6432 18.2534C19.562 18.6144 19.4176 18.9663 19.2281 19.2731C18.6055 20.3199 17.4595 21.0237 16.142 21.0237C15.2125 21.0237 14.3733 20.6718 13.7417 20.0943C13.4709 19.8596 13.2363 19.5799 13.0558 19.2731C12.722 18.7317 12.5325 18.091 12.5325 17.4142C12.5325 16.4396 12.9205 15.5463 13.5522 14.8966C14.2109 14.2198 15.1313 13.8047 16.142 13.8047C17.2068 13.8047 18.1723 14.2649 18.822 15.0049C19.3996 15.6455 19.7515 16.4938 19.7515 17.4142Z" stroke-width="1.5" stroke-miterlimit="10" stroke-linecap="round" stroke-linejoin="round"/>
<path d="M17.4865 17.396H14.7974" stroke-width="1.5" stroke-miterlimit="10" stroke-linecap="round" stroke-linejoin="round"/>
<path d="M16.142 16.0786V18.7767" stroke-width="1.5" stroke-miterlimit="10" stroke-linecap="round" stroke-linejoin="round"/>
</svg>
