<svg width="32" height="24" viewBox="0 0 32 24" fill="none" xmlns="http://www.w3.org/2000/svg">
<path d="M24.6186 19.0114C24.1253 19.0114 23.643 19.1577 23.2328 19.4318C22.8226 19.7058 22.5029 20.0954 22.3141 20.5512C22.1254 21.0069 22.076 21.5085 22.1722 21.9923C22.2684 22.4762 22.506 22.9206 22.8548 23.2694C23.2037 23.6183 23.6481 23.8558 24.132 23.9521C24.6158 24.0483 25.1173 23.9989 25.5731 23.8101C26.0289 23.6213 26.4184 23.3016 26.6925 22.8915C26.9666 22.4813 27.1129 21.999 27.1129 21.5057C27.1129 21.1781 27.0484 20.8538 26.923 20.5512C26.7977 20.2485 26.6139 19.9736 26.3823 19.742C26.1507 19.5103 25.8757 19.3266 25.5731 19.2013C25.2705 19.0759 24.9461 19.0114 24.6186 19.0114ZM7.77047 19.0114C7.27731 19.0121 6.79544 19.1591 6.38576 19.4336C5.97608 19.7082 5.65697 20.098 5.46878 20.5538C5.28058 21.0097 5.23173 21.5111 5.32841 21.9947C5.42509 22.4783 5.66295 22.9223 6.01194 23.2708C6.36092 23.6192 6.80537 23.8564 7.28912 23.9524C7.77286 24.0483 8.27418 23.9987 8.72973 23.8098C9.18528 23.6209 9.57461 23.3012 9.84852 22.8911C10.1224 22.481 10.2686 21.9989 10.2686 21.5057C10.2686 21.1778 10.204 20.8531 10.0784 20.5503C9.9528 20.2474 9.76872 19.9723 9.5367 19.7406C9.30467 19.5089 9.02925 19.3253 8.72618 19.2001C8.42311 19.075 8.09835 19.0109 7.77047 19.0114ZM31.0815 5.95862H30.4194V0H1.7772V5.95862H1.3076C0.953467 5.95862 0.730211 6.0818 0.730211 6.43593V9.81556C0.722753 9.89615 0.732099 9.97742 0.757657 10.0542C0.783216 10.131 0.824431 10.2017 0.878698 10.2617C0.932964 10.3218 0.999101 10.3699 1.07293 10.4031C1.14675 10.4363 1.22666 10.4538 1.3076 10.4545H2.91658C3.00045 10.455 3.08359 10.4388 3.16113 10.4069C3.23868 10.3749 3.30907 10.3278 3.3682 10.2683C3.42733 10.2088 3.47401 10.1381 3.50552 10.0604C3.53703 9.98266 3.55273 9.89943 3.5517 9.81556V3.13713H5.53791V0.827586H6.5849V3.13713H8.36325V0.827586H9.40639V3.13713H11.1847V0.827586H12.3395V3.13713H14.2025V0.827586H15.2495V3.13713H17.0279V0.827586H18.071V3.13713H19.9764V0.827586H21.0234V3.13713H22.7863V0.827586H24.0412V3.13713H25.8195V0.827586H26.8627V3.13713H28.8489V9.81556C28.8468 9.89873 28.8615 9.98148 28.8919 10.0589C28.9223 10.1364 28.9679 10.2069 29.026 10.2665C29.0841 10.326 29.1536 10.3733 29.2302 10.4056C29.3069 10.4379 29.3893 10.4546 29.4725 10.4545H31.0815C31.1632 10.4542 31.244 10.4371 31.3188 10.4043C31.3936 10.3714 31.4609 10.3236 31.5165 10.2637C31.5721 10.2038 31.6148 10.1331 31.6419 10.056C31.669 9.97891 31.68 9.89707 31.6742 9.81556V6.43593C31.6742 6.0818 31.4394 5.95862 31.0815 5.95862ZM4.0752 16.8635C4.07163 17.0496 4.10507 17.2346 4.1736 17.4077C4.24212 17.5807 4.34435 17.7385 4.47436 17.8717C4.60436 18.0049 4.75954 18.111 4.93089 18.1837C5.10224 18.2565 5.28633 18.2944 5.47247 18.2954H26.905C27.092 18.2949 27.2771 18.2574 27.4495 18.185C27.6219 18.1127 27.7783 18.0069 27.9097 17.8737C28.041 17.7406 28.1447 17.5828 28.2147 17.4094C28.2847 17.236 28.3197 17.0505 28.3177 16.8635V4.18027H4.0675L4.0752 16.8635ZM22.5092 10.8818C22.5092 10.8818 22.5708 15.012 18.0518 16.5094C18.0518 16.5094 18.352 13.303 19.4875 13.1336C19.4875 13.1336 19.0564 12.587 16.8662 15.7742C16.8624 15.7819 16.6199 10.008 22.5092 10.8818ZM9.42179 6.332C9.42179 6.332 17.6669 7.82165 15.9347 16.2784C15.9347 16.2784 15.2611 11.9634 12.6898 10.366C12.6898 10.366 15.3535 13.7225 14.5875 16.1052C14.5875 16.1052 8.12075 14.2922 9.42949 6.332H9.42179Z" fill="#BDF26D"/>
</svg>
